<svg width="47" height="47" viewBox="0 0 47 47" fill="none" xmlns="http://www.w3.org/2000/svg">
<circle cx="2.45522" cy="2.45522" r="2.45522" transform="matrix(-1 0 0 1 47 0)" fill="#6C63FF"/>
<circle cx="2.45522" cy="2.45522" r="2.45522" transform="matrix(-1 0 0 1 32.9701 0)" fill="#6C63FF"/>
<circle cx="2.45522" cy="2.45522" r="2.45522" transform="matrix(-1 0 0 1 32.9701 14.0298)" fill="#6C63FF"/>
<circle cx="2.45522" cy="2.45522" r="2.45522" transform="matrix(-1 0 0 1 18.9403 0)" fill="#6C63FF"/>
<circle cx="2.45522" cy="2.45522" r="2.45522" transform="matrix(-1 0 0 1 18.9403 14.0298)" fill="#6C63FF"/>
<circle cx="2.45522" cy="2.45522" r="2.45522" transform="matrix(-1 0 0 1 18.9403 28.0597)" fill="#6C63FF"/>
<circle cx="2.45522" cy="2.45522" r="2.45522" transform="matrix(-1 0 0 1 4.91045 0)" fill="#6C63FF"/>
<circle cx="2.45522" cy="2.45522" r="2.45522" transform="matrix(-1 0 0 1 4.91045 14.0298)" fill="#6C63FF"/>
<circle cx="2.45522" cy="2.45522" r="2.45522" transform="matrix(-1 0 0 1 4.91045 28.0597)" fill="#6C63FF"/>
<circle cx="2.45522" cy="2.45522" r="2.45522" transform="matrix(-1 0 0 1 4.91045 42.0895)" fill="#6C63FF"/>
</svg>
