<svg width="400" height="390" viewBox="0 0 400 390" fill="none" xmlns="http://www.w3.org/2000/svg">
<g clip-path="url(#clip0_2_43)">
<path d="M123.521 286.095H73.4167C72.1535 286.095 71.1257 285.068 71.1257 283.807C71.1257 282.546 72.1535 281.52 73.4167 281.52H123.521C124.785 281.52 125.812 282.546 125.812 283.807C125.812 285.068 124.785 286.095 123.521 286.095Z" fill="#6C63FF"/>
<path d="M34.0367 298.34C34.0367 298.751 34.3672 299.081 34.7788 299.081H162.159C162.57 299.081 162.901 298.751 162.901 298.34C162.901 297.929 162.57 297.599 162.159 297.599H34.7788C34.3672 297.599 34.0367 297.929 34.0367 298.34Z" fill="#3F3D56"/>
<path d="M302.789 149.056C325.172 149.056 343.318 130.937 343.318 108.586C343.318 86.235 325.172 68.116 302.789 68.116C280.405 68.116 262.26 86.235 262.26 108.586C262.26 130.937 280.405 149.056 302.789 149.056Z" fill="#FF6884"/>
<path d="M0 349.478C0 349.889 0.330488 350.219 0.742034 350.219H326.404C326.815 350.219 327.146 349.889 327.146 349.478C327.146 349.067 326.815 348.737 326.404 348.737H0.742034C0.330488 348.737 0 349.067 0 349.478Z" fill="#3F3D56"/>
<path d="M4.71067 299.444L3.66891 298.304L105.343 205.662L141.975 222.059L181.532 154.322L214.031 138.68L244.143 188.792C260.4 146.767 301.17 102.798 350.024 58.1892L351.226 59.1608C305.406 102.964 266.203 146.967 243.954 191.479L216.102 144.99C214.786 142.794 212.021 141.946 209.697 143.025C191.933 151.279 177.115 164.752 167.226 181.642L142.447 223.961L136.791 221.43C117.875 212.962 95.7294 216.511 80.4162 230.464L4.71067 299.444Z" fill="#3F3D56"/>
<path d="M352.316 66.6235L350.772 66.7305L348.282 61.3402L342.705 60.2091L342.488 58.6792L351.681 57.3747L352.316 66.6235Z" fill="#3F3D56"/>
<path d="M193.72 99.6058L199.185 78.6255L220.477 77.6028L226.847 106.524L193.72 99.6058Z" fill="#FFB6B6"/>
<path opacity="0.1" d="M193.72 99.6058L199.185 78.6255L220.477 77.6028L226.847 106.524L193.72 99.6058Z" fill="black"/>
<path d="M207.73 90.3666C221.924 90.3666 233.43 78.8774 233.43 64.7048C233.43 50.5322 221.924 39.043 207.73 39.043C193.537 39.043 182.031 50.5322 182.031 64.7048C182.031 78.8774 193.537 90.3666 207.73 90.3666Z" fill="#FFB6B6"/>
<path d="M221.909 70.1366C221.909 70.1366 212.147 50.8216 200.708 51.9367C189.269 53.0518 183.243 54.408 183.243 54.408C183.243 54.408 179.847 39.3646 195.833 33.5781C195.833 33.5781 175.508 13.5711 199.707 3.75681C223.907 -6.05751 237.448 6.45941 237.448 6.45941C237.448 6.45941 255.361 24.3156 232.801 37.6615C232.801 37.6615 249.553 60.162 229.27 78.7075C229.27 78.7075 233.807 63.7001 229.073 66.4677C224.34 69.2353 221.909 70.1366 221.909 70.1366Z" fill="#2F2E41"/>
<path d="M179.375 205.719L175.957 208.99L151.26 261.866L148.557 349.326H190.05L209.514 306.014L222.628 348.908H259.937L268.585 271.044L245.336 215.976L179.375 205.719Z" fill="#2F2E41"/>
<path d="M222.358 97.4738H194.648L164.507 113.67L171.535 144.983C171.535 144.983 169.913 163.878 173.698 177.915C177.483 191.952 175.861 210.308 175.861 210.308L245.336 215.976L247.499 152.271L246.418 109.621L222.358 97.4738Z" fill="#E6E6E6"/>
<path d="M169.102 113.94C169.102 113.94 152.342 114.48 149.638 125.277C146.935 136.075 144.772 191.682 144.772 191.682C144.772 191.682 146.394 224.678 164.507 208.99C182.619 193.302 180.997 145.793 180.997 145.793L169.102 113.94Z" fill="#E6E6E6"/>
<path d="M331.67 389.377H232.898C229.553 389.377 226.832 386.66 226.832 383.32V281.362C226.832 278.021 229.553 275.304 232.898 275.304H331.67C335.016 275.304 337.737 278.021 337.737 281.362V383.32C337.737 386.66 335.016 389.377 331.67 389.377Z" fill="white"/>
<path d="M331.67 390H232.898C229.209 390 226.208 387.003 226.208 383.32V281.362C226.208 277.678 229.209 274.681 232.898 274.681H331.67C335.359 274.681 338.361 277.678 338.361 281.362V383.32C338.361 387.003 335.359 390 331.67 390ZM232.898 275.926C229.897 275.926 227.455 278.365 227.455 281.361V383.32C227.455 386.317 229.897 388.755 232.898 388.755H331.67C334.672 388.755 337.114 386.317 337.114 383.32V281.361C337.114 278.365 334.672 275.926 331.67 275.926H232.898Z" fill="#3F3D56"/>
<path d="M286.182 362.592H278.041C277.05 362.592 276.244 361.97 276.244 361.207V326.209C276.244 325.445 277.05 324.823 278.041 324.823H286.182C287.173 324.823 287.98 325.445 287.98 326.209V361.207C287.98 361.97 287.173 362.592 286.182 362.592Z" fill="#6C63FF"/>
<path d="M259.268 341.967C258.467 341.967 257.816 342.47 257.816 343.087V361.167C257.816 361.785 258.467 362.287 259.268 362.287H267.409C268.21 362.287 268.861 361.785 268.861 361.167V343.087C268.861 342.47 268.21 341.967 267.409 341.967H259.268Z" fill="#6C63FF"/>
<path d="M304.956 362.592H296.815C295.824 362.592 295.017 361.97 295.017 361.207V303.851C295.017 303.087 295.824 302.466 296.815 302.466H304.956C305.947 302.466 306.753 303.087 306.753 303.851V361.207C306.753 361.97 305.947 362.592 304.956 362.592Z" fill="#6C63FF"/>
<path d="M129.771 111.181H120.472C119.34 111.181 118.419 110.472 118.419 109.599V69.621C118.419 68.7484 119.34 68.0385 120.472 68.0385H129.771C130.904 68.0385 131.825 68.7484 131.825 69.621V109.599C131.825 110.472 130.904 111.181 129.771 111.181Z" fill="#6C63FF"/>
<path d="M99.0275 87.6221C98.1129 87.6221 97.3686 88.1958 97.3686 88.9008V109.554C97.3686 110.259 98.1129 110.833 99.0275 110.833H108.327C109.241 110.833 109.986 110.259 109.986 109.554V88.9008C109.986 88.1958 109.241 87.6221 108.327 87.6221H99.0275Z" fill="#6C63FF"/>
<path d="M151.216 111.181H141.917C140.784 111.181 139.863 110.472 139.863 109.599V44.0824C139.863 43.2097 140.784 42.4998 141.917 42.4998H151.216C152.348 42.4998 153.269 43.2097 153.269 44.0824V109.599C153.269 110.472 152.348 111.181 151.216 111.181Z" fill="#6C63FF"/>
<path d="M267.142 290.139C271.959 289.678 275.275 283.179 274.551 275.619C274.303 272.595 273.333 269.675 271.723 267.102L270.795 258.546L270.937 258.503L273.27 217.935C273.813 208.502 270.073 199.234 262.869 193.108C258.583 189.465 254.011 187.62 251.071 192.224C246.193 199.863 252.512 231.353 256.661 249.256L258.27 268.388C257.177 271.22 256.78 274.272 257.111 277.289C257.834 284.846 262.326 290.599 267.142 290.139Z" fill="#FFB6B6"/>
<path d="M240.47 110.701C240.47 110.701 254.528 105.302 261.016 121.498C267.504 137.694 274.532 217.596 274.532 217.596L241.552 211.657L240.47 110.701Z" fill="#E6E6E6"/>
<path d="M47.4452 102.779H28.5168C27.2536 102.779 26.2258 101.752 26.2258 100.491C26.2258 99.2298 27.2536 98.204 28.5168 98.204H47.4452C48.7084 98.204 49.7358 99.2298 49.7358 100.491C49.7358 101.752 48.7084 102.779 47.4452 102.779Z" fill="#E6E6E6"/>
<path d="M47.4452 70.3536H28.5168C27.2536 70.3536 26.2258 69.3273 26.2258 68.0659C26.2258 66.8046 27.2536 65.7787 28.5168 65.7787H47.4452C48.7084 65.7787 49.7358 66.8046 49.7358 68.0659C49.7358 69.3273 48.7084 70.3536 47.4452 70.3536Z" fill="#E6E6E6"/>
<path d="M47.4452 46.97H28.5168C27.2536 46.97 26.2258 45.9437 26.2258 44.6824C26.2258 43.421 27.2536 42.3952 28.5168 42.3952H47.4452C48.7084 42.3952 49.7358 43.421 49.7358 44.6824C49.7358 45.9437 48.7084 46.97 47.4452 46.97Z" fill="#E6E6E6"/>
<path d="M25.4665 111.295C25.4665 111.705 25.797 112.035 26.2085 112.035H153.589C154 112.035 154.331 111.705 154.331 111.295C154.331 110.884 154 110.554 153.589 110.554H26.2085C25.797 110.554 25.4665 110.884 25.4665 111.295Z" fill="#3F3D56"/>
<path d="M271.136 303.06C271.136 303.47 271.466 303.8 271.878 303.8H399.258C399.67 303.8 400 303.47 400 303.06C400 302.649 399.67 302.319 399.258 302.319H271.878C271.466 302.319 271.136 302.649 271.136 303.06Z" fill="#3F3D56"/>
<path d="M233.724 363.453C233.724 363.864 234.055 364.194 234.466 364.194H361.846C362.258 364.194 362.588 363.864 362.588 363.453C362.588 363.042 362.258 362.712 361.846 362.712H234.466C234.055 362.712 233.724 363.042 233.724 363.453Z" fill="#3F3D56"/>
<path d="M148.067 107.549C143.25 108.009 139.934 114.508 140.658 122.068C140.906 125.092 141.876 128.013 143.486 130.586L144.414 139.142L144.272 139.184L141.939 179.752C141.396 189.185 145.136 198.454 152.34 204.579C156.626 208.223 161.198 210.067 164.138 205.464C169.016 197.824 162.697 166.334 158.548 148.431L156.939 129.3C158.032 126.468 158.429 123.416 158.098 120.399C157.375 112.841 152.883 107.088 148.067 107.549Z" fill="#FFB6B6"/>
</g>
<defs>
<clipPath id="clip0_2_43">
<rect width="400" height="390" fill="white"/>
</clipPath>
</defs>
</svg>
